{"title":"Tormented 2009 DVDRip Xvid LKRG","uid":6465415,"size":949738698,"categoryP":"video","categoryS":"movies","magnet":"?xt=urn:btih:e8456d899671e72e9ab0bc401dbf2ac6ae8c3762&amp;dn=Tormented+2009+DVDRip+Xvid+LKRG&amp;tr=udp%3A%2F%2Ftracker.openbittorrent.com%3A80&amp;tr=udp%3A%2F%2Fopen.demonii.com%3A1337&amp;tr=udp%3A%2F%2Ftracker.coppersurfer.tk%3A6969&amp;tr=udp%3A%2F%2Fexodus.desync.com%3A6969","seeders":1,"leechers":2,"uploader":".BONE.","files":2,"time":1307949816,"description":"\nPLOT\n\nA bullied teenager comes back from the dead to take revenge on his classmates.\n &lt;a href=&quot;\nhttp://www.imdb.com/title/tt1100053/&quot; rel=&quot;nofollow&quot; target=&quot;_NEW&quot;&gt;\nhttp://www.imdb.com/title/tt1100053/&lt;/a&gt;\n\nEncoded By .......: BigPerm1828\nRuntime ..........: 1h 31mn\nFile Size ........: 906 MiB\nResolution .......: 704x396\nIMDb URL .........: http://www.imdb.com/title/tt1100053/\nLanguage .........: English\nVideo\nID : 0\nFormat : MPEG-4 Visual\nFormat profile : Advanced Simple@L5\nFormat settings, BVOP : Yes\nFormat settings, QPel : No\nFormat settings, GMC : No warppoints\nFormat settings, Matrix : Default (H.263)\nCodec ID : XVID\nCodec ID/Hint : XviD\nDuration : 1h 31mn\nBit rate : 932 Kbps\nWidth : 704 pixels\nHeight : 396 pixels\nDisplay aspect ratio : 16:9\nFrame rate : 23.976 fps\nColor space : YUV\nChroma subsampling : 4:2:0\nBit depth : 8 bits\nScan type : Progressive\nCompression mode : Lossy\nBits/(Pixel*Frame) : 0.139\nStream size : 609 MiB (67%)\nWriting library : XviD 1.2.1 (UTC 2008-12-04)\n\nAudio\nID : 1\nFormat : AC-3\nFormat/Info : Audio Coding 3\nMode extension : CM (complete main)\nCodec ID : 2000\nDuration : 1h 31mn\nBit rate mode : Constant\nBit rate : 448 Kbps\nChannel(s) : 6 channels\nChannel positions : Front: L C R, Side: L R, LFE\nSampling rate : 48.0 KHz\nBit depth : 16 bits\nCompression mode : Lossy\nVideo delay : 42ms\nStream size : 293 MiB (32%)\nAlignment : Split accross interleaves\nInterleave, duration : 500 ms (11.99 video frames)\nInterleave, preload duration : 500 ms\n &lt;a href=&quot;\nhttp://leetleech.org/images/65166119911122385512.png&quot; rel=&quot;nofollow&quot; target=&quot;_NEW&quot;&gt;\nhttp://leetleech.org/images/65166119911122385512.png&lt;/a&gt;\n &lt;a href=&quot;\nhttp://leetleech.org/images/69388073087643803002.png&quot; rel=&quot;nofollow&quot; target=&quot;_NEW&quot;&gt;\nhttp://leetleech.org/images/69388073087643803002.png&lt;/a&gt;\n &lt;a href=&quot;\nhttp://leetleech.org/images/00439382240568885520.png&quot; rel=&quot;nofollow&quot; target=&quot;_NEW&quot;&gt;\nhttp://leetleech.org/images/00439382240568885520.png&lt;/a&gt;\n &lt;a href=&quot;\nhttp://leetleech.org/images/96871293479722399553.png&quot; rel=&quot;nofollow&quot; target=&quot;_NEW&quot;&gt;\nhttp://leetleech.org/images/96871293479722399553.png&lt;/a&gt;","torrent":{"xt":"urn:btih:e8456d899671e72e9ab0bc401dbf2ac6ae8c3762","amp;dn":"Tormented+2009+DVDRip+Xvid+LKRG","amp;tr":["udp%3A%2F%2Ftracker.openbittorrent.com%3A80","udp%3A%2F%2Fopen.demonii.com%3A1337","udp%3A%2F%2Ftracker.coppersurfer.tk%3A6969","udp%3A%2F%2Fexodus.desync.com%3A6969"],"infoHash":"e8456d899671e72e9ab0bc401dbf2ac6ae8c3762","infoHashBuffer":{"type":"Buffer","data":[232,69,109,137,150,113,231,46,154,176,188,64,29,191,42,198,174,140,55,98]},"announce":[],"urlList":[]}}